<svg width="15" height="15" viewBox="0 0 15 15" fill="none" xmlns="http://www.w3.org/2000/svg">
<path d="M7.55063 4.17578C9.39633 4.17578 10.9198 5.69922 10.9198 7.54492C10.9198 9.41992 9.39633 10.9141 7.55063 10.9141C5.67563 10.9141 4.18149 9.41992 4.18149 7.54492C4.18149 5.69922 5.67563 4.17578 7.55063 4.17578ZM7.55063 9.74219C8.7518 9.74219 9.7186 8.77539 9.7186 7.54492C9.7186 6.34375 8.7518 5.37695 7.55063 5.37695C6.32016 5.37695 5.35336 6.34375 5.35336 7.54492C5.35336 8.77539 6.34945 9.74219 7.55063 9.74219ZM11.828 4.05859C11.828 4.49805 11.4764 4.84961 11.037 4.84961C10.5975 4.84961 10.2459 4.49805 10.2459 4.05859C10.2459 3.61914 10.5975 3.26758 11.037 3.26758C11.4764 3.26758 11.828 3.61914 11.828 4.05859ZM14.0545 4.84961C14.1131 5.93359 14.1131 9.18555 14.0545 10.2695C13.9959 11.3242 13.7616 12.2324 12.9998 13.0234C12.2381 13.7852 11.3006 14.0195 10.2459 14.0781C9.16195 14.1367 5.91 14.1367 4.82602 14.0781C3.77133 14.0195 2.86313 13.7852 2.07211 13.0234C1.31039 12.2324 1.07602 11.3242 1.01742 10.2695C0.95883 9.18555 0.95883 5.93359 1.01742 4.84961C1.07602 3.79492 1.31039 2.85742 2.07211 2.0957C2.86313 1.33398 3.77133 1.09961 4.82602 1.04102C5.91 0.982422 9.16195 0.982422 10.2459 1.04102C11.3006 1.09961 12.2381 1.33398 12.9998 2.0957C13.7616 2.85742 13.9959 3.79492 14.0545 4.84961ZM12.6483 11.4121C12.9998 10.5625 12.912 8.51172 12.912 7.54492C12.912 6.60742 12.9998 4.55664 12.6483 3.67773C12.4139 3.12109 11.9745 2.65234 11.4178 2.44727C10.5389 2.0957 8.48813 2.18359 7.55063 2.18359C6.58383 2.18359 4.53305 2.0957 3.68344 2.44727C3.0975 2.68164 2.65805 3.12109 2.42367 3.67773C2.07211 4.55664 2.16 6.60742 2.16 7.54492C2.16 8.51172 2.07211 10.5625 2.42367 11.4121C2.65805 11.998 3.0975 12.4375 3.68344 12.6719C4.53305 13.0234 6.58383 12.9355 7.55063 12.9355C8.48813 12.9355 10.5389 13.0234 11.4178 12.6719C11.9745 12.4375 12.4432 11.998 12.6483 11.4121Z" fill="#050B20"/>
<a href="https://www.figma.com/design/PzQUNVEIeMrv8HjdXbjYra?node-id=13-779">
<rect fill="black" fill-opacity="0" x="0.178312" y="-1.125" width="13.125" height="17.25"/>
</a>
</svg>
