<svg width="15" height="14" viewBox="0 0 15 14" fill="none" xmlns="http://www.w3.org/2000/svg">
<path d="M3.91781 13.1699H1.1932V4.41016H3.91781V13.1699ZM2.54086 3.23828C1.69125 3.23828 0.988127 2.50586 0.988127 1.62695C0.988127 0.777344 1.69125 0.0742188 2.54086 0.0742188C3.41977 0.0742188 4.12289 0.777344 4.12289 1.62695C4.12289 2.50586 3.41977 3.23828 2.54086 3.23828ZM14.0838 13.1699H11.3885V8.92188C11.3885 7.89648 11.3592 6.60742 9.95297 6.60742C8.54672 6.60742 8.34164 7.69141 8.34164 8.83398V13.1699H5.61703V4.41016H8.22445V5.61133H8.25375C8.63461 4.9375 9.51352 4.20508 10.8319 4.20508C13.5858 4.20508 14.1131 6.02148 14.1131 8.36523V13.1699H14.0838Z" fill="#050B20"/>
<a href="https://www.figma.com/design/PzQUNVEIeMrv8HjdXbjYra?node-id=13-779">
<rect fill="black" fill-opacity="0" x="0.178312" y="-1.125" width="13.125" height="17.25"/>
</a>
</svg>
