<svg width="16" height="13" viewBox="0 0 16 13" fill="none" xmlns="http://www.w3.org/2000/svg">
<path d="M13.5146 3.49805C13.5146 3.64453 13.5146 3.76172 13.5146 3.9082C13.5146 7.98047 10.4385 12.6387 4.78418 12.6387C3.02637 12.6387 1.41504 12.1406 0.0673828 11.2617C0.301758 11.291 0.536133 11.3203 0.799805 11.3203C2.23535 11.3203 3.55371 10.8223 4.6084 10.002C3.26074 9.97266 2.11816 9.09375 1.7373 7.86328C1.94238 7.89258 2.11816 7.92188 2.32324 7.92188C2.58691 7.92188 2.87988 7.86328 3.11426 7.80469C1.70801 7.51172 0.65332 6.28125 0.65332 4.78711V4.75781C1.06348 4.99219 1.56152 5.10938 2.05957 5.13867C1.20996 4.58203 0.682617 3.64453 0.682617 2.58984C0.682617 2.00391 0.829102 1.47656 1.09277 1.03711C2.61621 2.88281 4.90137 4.11328 7.4502 4.25977C7.3916 4.02539 7.3623 3.79102 7.3623 3.55664C7.3623 1.85742 8.73926 0.480469 10.4385 0.480469C11.3174 0.480469 12.1084 0.832031 12.6943 1.44727C13.3682 1.30078 14.042 1.03711 14.6279 0.685547C14.3936 1.41797 13.9248 2.00391 13.2803 2.38477C13.8955 2.32617 14.5107 2.15039 15.0381 1.91602C14.6279 2.53125 14.1006 3.05859 13.5146 3.49805Z" fill="#050B20"/>
<a href="https://www.figma.com/design/PzQUNVEIeMrv8HjdXbjYra?node-id=13-779">
<rect fill="black" fill-opacity="0" x="0.1875" y="-1.125" width="15" height="17.25"/>
</a>
</svg>
