<svg width="127" height="127" viewBox="0 0 127 127" fill="none" xmlns="http://www.w3.org/2000/svg">
<g clip-path="url(#clip0_11_1347)">
<path d="M0 59.5479C0.331376 57.1029 0.596478 54.6479 0.994129 52.2096C4.92094 27.3655 24.7803 6.5732 49.438 1.54078C67.0242 -2.0505 83.5996 0.527005 98.6905 10.4395C113.781 20.3519 122.841 34.4752 125.969 52.256C126.695 56.3806 126.775 60.6312 126.964 64.8453C127.096 67.9396 124.839 70.1991 121.993 70.1792C119.146 70.1593 117.039 67.9165 117.075 64.7757C117.218 51.9445 113.669 40.306 105.686 30.1815C97.2424 19.4673 86.191 12.9209 72.7504 10.7575C56.8642 8.18663 42.3367 11.6454 29.6714 21.7401C19.19 30.0987 12.8607 41.0813 10.7267 54.2802C8.16511 70.1163 11.5982 84.6139 21.6455 97.2529C30.0459 107.815 41.0907 114.219 54.4021 116.286C72.9591 119.165 89.0309 113.931 102.452 100.715C103.757 99.423 105.192 98.5583 107.074 98.8332C109.082 99.1281 110.497 100.248 111.14 102.196C111.783 104.144 111.296 105.86 109.884 107.321C98.9323 118.684 84.1784 125.616 68.4392 126.795C68.1159 126.841 67.796 126.909 67.4815 126.997H59.5318C59.2004 126.931 58.8955 126.845 58.5741 126.798C55.5519 126.364 52.5 126.092 49.5143 125.473C24.7604 120.431 4.94414 99.7211 0.994129 74.8141C0.606419 72.3824 0.331376 69.9274 0 67.4825V59.5479Z" fill="#222BD6"/>
<path d="M96.9873 74.3135C93.7201 76.4172 90.0167 77.7496 86.1579 78.2096C80.5466 78.8496 74.8848 77.557 70.1076 74.5453C65.3305 71.5335 61.7237 66.9828 59.8831 61.6447C55.1974 48.088 63.1173 33.2425 76.9821 29.6015C80.2778 28.7326 83.7172 28.5517 87.0858 29.0701C90.4545 29.5886 93.6803 30.7952 96.562 32.6148C99.4438 34.4344 101.92 36.8279 103.836 39.6462C105.751 42.4645 107.066 45.6471 107.697 48.9957C108.872 54.9339 107.769 61.0965 104.609 66.2597C104.119 67.0846 104.251 67.4987 104.871 68.115C111.553 74.7564 118.221 81.4133 124.873 88.0856C127.461 90.6764 127.703 93.668 125.509 95.8148C123.315 97.9616 120.416 97.6734 117.867 95.129L97.7031 74.9728C97.5009 74.7707 97.2822 74.5852 96.9873 74.3135ZM83.3412 68.4728C86.2835 68.4734 89.1599 67.6021 91.6071 65.9689C94.0542 64.3357 95.9622 62.014 97.09 59.2971C98.2177 56.5802 98.5147 53.59 97.9432 50.7044C97.3718 47.8189 95.9576 45.1674 93.8794 43.0851C91.8013 41.0027 89.1523 39.583 86.2673 39.0053C83.3824 38.4276 80.3908 38.7178 77.6708 39.8392C74.9507 40.9607 72.6242 42.8631 70.9852 45.306C69.3462 47.7489 68.4683 50.6227 68.4624 53.5643C68.4685 57.5107 70.037 61.2941 72.825 64.0877C75.6131 66.8813 79.3939 68.4579 83.3412 68.4728Z" fill="#222BD6"/>
<path d="M63.3724 98.2333C56.8046 98.2333 50.2367 98.2532 43.6688 98.2333C42.4336 98.2437 41.2392 97.792 40.32 96.9671C39.4009 96.1421 38.8234 95.0034 38.7009 93.7746C38.5785 92.5458 38.9199 91.3155 39.6582 90.3255C40.3965 89.3354 41.4783 88.6571 42.6912 88.4236C43.0561 88.3552 43.4268 88.323 43.798 88.3275C56.9338 88.3275 70.0707 88.3275 83.2086 88.3275C85.9259 88.3275 88.0302 90.2159 88.2853 92.7868C88.4026 94.0122 88.0609 95.2375 87.3262 96.2254C86.5916 97.2132 85.5163 97.8933 84.3088 98.1339C83.7802 98.2229 83.2439 98.2574 82.7082 98.2366C76.2597 98.2389 69.8144 98.2378 63.3724 98.2333Z" fill="#222BD6"/>
<path d="M38.6948 58.557C38.6948 60.2731 38.6948 61.7971 38.6948 63.3244C38.6616 66.3061 36.5077 68.5059 33.6678 68.4728C30.8908 68.4363 28.8098 66.2464 28.78 63.3078C28.78 61.7839 28.78 60.2599 28.78 58.5537C27.0502 58.5537 25.3767 58.5901 23.7033 58.5537C22.4943 58.5275 21.3367 58.0595 20.4493 57.2382C19.5619 56.4168 19.0061 55.2989 18.887 54.0958C18.7679 52.8926 19.0936 51.6875 19.8028 50.7082C20.5119 49.7288 21.5552 49.043 22.7357 48.7804C23.0962 48.6955 23.4654 48.6532 23.8358 48.6545C30.4435 48.6545 37.0511 48.6247 43.6555 48.6545C44.3166 48.6374 44.9745 48.7528 45.5903 48.9939C46.2061 49.2351 46.7674 49.597 47.241 50.0585C47.7147 50.52 48.0912 51.0716 48.3482 51.6808C48.6052 52.29 48.7377 52.9445 48.7377 53.6057C48.7377 54.2669 48.6052 54.9215 48.3482 55.5307C48.0912 56.1399 47.7147 56.6915 47.241 57.153C46.7674 57.6144 46.2061 57.9764 45.5903 58.2175C44.9745 58.4587 44.3166 58.5741 43.6555 58.557C42.4592 58.5835 41.2596 58.557 40.0633 58.557H38.6948Z" fill="#222BD6"/>
</g>
<defs>
<clipPath id="clip0_11_1347">
<rect width="127" height="127" fill="white"/>
</clipPath>
</defs>
</svg>
