<svg width="18" height="18" viewBox="0 0 18 18" fill="none" xmlns="http://www.w3.org/2000/svg">
<path d="M4.21963 14H10.7944V12H4.21963V14ZM4.21963 10H13.6121V8H4.21963V10ZM4.21963 6H13.6121V4H4.21963V6ZM2.34112 18C1.82453 18 1.3823 17.8042 1.01443 17.4125C0.646553 17.0208 0.462616 16.55 0.462616 16V2C0.462616 1.45 0.646553 0.979167 1.01443 0.5875C1.3823 0.195833 1.82453 0 2.34112 0H15.4907C16.0072 0 16.4495 0.195833 16.8173 0.5875C17.1852 0.979167 17.3692 1.45 17.3692 2V16C17.3692 16.55 17.1852 17.0208 16.8173 17.4125C16.4495 17.8042 16.0072 18 15.4907 18H2.34112ZM2.34112 16H15.4907V2H2.34112V16Z" fill="#3A3A3A"/>
</svg>
