<svg width="89" height="89" viewBox="0 0 89 89" fill="none" xmlns="http://www.w3.org/2000/svg">
<path d="M38.6617 65.0741L69.6962 34.0396L63.5333 27.8767L38.6617 52.7483L26.1159 40.2025L19.953 46.3653L38.6617 65.0741ZM44.8246 88.8452C38.7351 88.8452 33.0124 87.6896 27.6566 85.3785C22.3008 83.0675 17.6419 79.931 13.6801 75.9691C9.71824 72.0073 6.58177 67.3485 4.27069 61.9926C1.95962 56.6368 0.804077 50.9141 0.804077 44.8246C0.804077 38.7351 1.95962 33.0124 4.27069 27.6566C6.58177 22.3008 9.71824 17.6419 13.6801 13.6801C17.6419 9.71824 22.3008 6.58177 27.6566 4.27069C33.0124 1.95962 38.7351 0.804077 44.8246 0.804077C50.9141 0.804077 56.6368 1.95962 61.9926 4.27069C67.3485 6.58177 72.0073 9.71824 75.9691 13.6801C79.931 17.6419 83.0675 22.3008 85.3785 27.6566C87.6896 33.0124 88.8452 38.7351 88.8452 44.8246C88.8452 50.9141 87.6896 56.6368 85.3785 61.9926C83.0675 67.3485 79.931 72.0073 75.9691 75.9691C72.0073 79.931 67.3485 83.0675 61.9926 85.3785C56.6368 87.6896 50.9141 88.8452 44.8246 88.8452Z" fill="#222BD6"/>
</svg>
