<svg width="253" height="280" viewBox="0 0 253 280" fill="none" xmlns="http://www.w3.org/2000/svg">
<path d="M102.937 21.9172C97.8979 19.5045 96.0864 12.5021 98.5905 7.5015C101.095 2.50089 106.963 -0.261999 112.557 0.0196177C118.152 0.301235 123.32 3.22396 127.323 7.14377C131.311 2.2345 139.364 1.34398 144.327 5.25617C149.289 9.16837 148.399 16.9851 144.73 22.001C149.03 24.1017 151.885 29.2317 150.819 33.9735C149.525 39.8113 142.607 43.6855 136.951 41.737C136.951 49.295 130.2 56.1984 122.642 56.3811C115.084 56.5638 108.029 49.9267 107.709 42.3763C101.94 45.0555 94.176 41.2651 92.7299 35.0771C91.2837 28.8892 96.5812 22.0695 102.937 21.9172Z" fill="#407BFF"/>
<path d="M139.022 50.1551C139.022 50.7903 139.21 51.4113 139.563 51.9395C139.916 52.4677 140.417 52.8794 141.004 53.1225C141.591 53.3656 142.237 53.4292 142.86 53.3053C143.483 53.1814 144.056 52.8755 144.505 52.4263C144.954 51.9771 145.26 51.4048 145.384 50.7817C145.508 50.1586 145.444 49.5128 145.201 48.9259C144.958 48.339 144.546 47.8374 144.018 47.4844C143.49 47.1315 142.869 46.9431 142.234 46.9431C141.382 46.9431 140.565 47.2815 139.962 47.8839C139.36 48.4862 139.022 49.3032 139.022 50.1551Z" fill="#407BFF"/>
<g opacity="0.6">
<path d="M102.937 21.9172C97.8979 19.5045 96.0864 12.5021 98.5905 7.5015C101.095 2.50089 106.963 -0.261999 112.557 0.0196177C118.152 0.301235 123.32 3.22396 127.323 7.14377C131.311 2.2345 139.364 1.34398 144.327 5.25617C149.289 9.16837 148.399 16.9851 144.73 22.001C149.03 24.1017 151.885 29.2317 150.819 33.9735C149.525 39.8113 142.607 43.6855 136.951 41.737C136.951 49.295 130.2 56.1984 122.642 56.3811C115.084 56.5638 108.029 49.9267 107.709 42.3763C101.94 45.0555 94.176 41.2651 92.7299 35.0771C91.2837 28.8892 96.5812 22.0695 102.937 21.9172Z" fill="white"/>
</g>
<path opacity="0.6" d="M139.022 50.1551C139.022 50.7903 139.21 51.4113 139.563 51.9395C139.916 52.4677 140.417 52.8794 141.004 53.1225C141.591 53.3656 142.237 53.4292 142.86 53.3053C143.483 53.1814 144.056 52.8755 144.505 52.4263C144.954 51.9771 145.26 51.4048 145.384 50.7817C145.508 50.1586 145.444 49.5128 145.201 48.9259C144.958 48.339 144.546 47.8374 144.018 47.4844C143.49 47.1315 142.869 46.9431 142.234 46.9431C141.382 46.9431 140.565 47.2815 139.962 47.8839C139.36 48.4862 139.022 49.3032 139.022 50.1551Z" fill="white"/>
<path d="M121.797 29.148C122.353 28.2443 123.004 27.4024 123.738 26.6362C124.246 26.11 124.71 25.5423 125.123 24.9389C125.435 24.4727 125.602 23.9244 125.603 23.3634C125.62 22.9935 125.553 22.6244 125.407 22.2842C125.26 21.944 125.039 21.6416 124.758 21.3997C124.122 20.895 123.324 20.6381 122.513 20.6766C121.67 20.6622 120.841 20.8893 120.123 21.3312C119.398 21.7946 118.793 22.4232 118.357 23.1655L114.894 20.7756C115.653 19.3909 116.777 18.2405 118.144 17.4494C119.627 16.6346 121.3 16.2275 122.992 16.2697C124.894 16.1722 126.767 16.758 128.274 17.9213C128.935 18.4778 129.459 19.1796 129.803 19.9718C130.148 20.7641 130.304 21.6253 130.261 22.4881C130.276 23.3109 130.147 24.1299 129.88 24.9085C129.656 25.5424 129.335 26.138 128.929 26.6743C128.479 27.2551 127.999 27.8115 127.491 28.3412C126.926 28.9141 126.417 29.5384 125.968 30.2059C125.63 30.7564 125.46 31.3943 125.481 32.0402H121.158C121.113 31.0367 121.333 30.039 121.797 29.148ZM121.341 39.3395C121.089 39.084 120.892 38.7804 120.762 38.4468C120.631 38.1133 120.569 37.7567 120.579 37.3986C120.57 37.0451 120.633 36.6935 120.763 36.365C120.894 36.0366 121.091 35.7382 121.341 35.4882C121.88 34.9939 122.584 34.7198 123.316 34.7198C124.047 34.7198 124.752 34.9939 125.291 35.4882C125.542 35.7374 125.739 36.0356 125.87 36.3643C126.001 36.6929 126.063 37.045 126.052 37.3986C126.062 37.7566 126 38.1131 125.869 38.4466C125.738 38.7801 125.542 39.0837 125.291 39.3395C124.767 39.8522 124.064 40.1394 123.331 40.1394C122.598 40.1394 121.895 39.8522 121.371 39.3395H121.341Z" fill="#407BFF"/>
<path d="M55.153 126.161C55.5238 129.031 55.5952 131.931 55.3661 134.815C54.9399 138.096 53.3187 144.847 52.3216 144.748C51.3245 144.649 50.7461 144.398 50.6167 141.924C50.4873 139.45 51.4387 136.505 50.3959 136.497C49.3532 136.49 44.4287 137.418 42.2899 138.91C40.1512 140.402 35.0516 144.999 33.7196 144.116C32.3877 143.233 32.8596 142.297 34.0317 140.958C35.2038 139.618 40.2501 134.709 40.0446 133.887C39.8391 133.065 32.8976 138.301 30.5686 138.301C28.6049 138.301 29.5943 136.018 29.9292 135.592C29.9292 135.592 27.4023 136.543 27.2577 133.856C27.1816 132.418 31.9843 130.203 37.0001 127.387C34.5522 128.2 32.151 129.148 29.8074 130.226C29.4642 130.409 29.0622 130.449 28.6898 130.336C28.3174 130.223 28.0049 129.967 27.8209 129.624C27.3262 128.627 29.1605 127.539 31.2764 126.237C33.3924 124.936 44.3069 123.695 45.7987 122.044C47.2905 120.392 49.6044 115.094 49.6044 115.094L57.8321 122.287L55.153 126.161Z" fill="#B97964"/>
<path d="M208.421 140.204C208.421 140.204 217.555 133.544 218.46 133.27C219.366 132.996 229.778 138.925 229.596 141.3C229.413 143.675 227.86 144.033 227.86 144.033C228.036 144.358 228.14 144.717 228.165 145.086C228.19 145.455 228.136 145.825 228.006 146.171C227.877 146.517 227.674 146.831 227.413 147.093C227.151 147.354 226.837 147.556 226.49 147.686C226.49 147.686 228.226 149.33 226.034 150.974C223.842 152.618 217.547 152.344 217.912 150.974C217.912 150.974 212.691 154.018 209.768 153.607L205.963 141.209L208.421 140.204Z" fill="#B97964"/>
<path d="M226.186 146.894C224.697 147.13 223.176 147.07 221.71 146.719C220.904 146.521 219.222 146.042 219.648 144.87C220.127 143.53 222 143.69 223.119 143.774C224.632 143.902 226.122 144.232 227.548 144.756C228.241 145.007 228.538 143.903 227.853 143.66C226.482 143.163 225.056 142.833 223.606 142.678C222.312 142.541 220.759 142.411 219.617 143.18C219.112 143.481 218.738 143.961 218.569 144.525C218.399 145.088 218.448 145.695 218.704 146.225C219.267 147.229 220.516 147.633 221.566 147.869C223.183 148.233 224.856 148.28 226.49 148.006C227.213 147.891 226.909 146.788 226.186 146.91V146.894Z" fill="#A24E3F"/>
<path d="M218.499 151.126C218.36 150.782 218.301 150.412 218.323 150.042C218.345 149.672 218.449 149.312 218.628 148.987C218.67 148.908 218.718 148.831 218.773 148.759L218.841 148.66L218.887 148.615C219.003 148.475 219.133 148.347 219.275 148.234C219.526 148.051 219.807 147.912 220.105 147.823C220.249 147.779 220.371 147.68 220.445 147.549C220.518 147.417 220.538 147.261 220.5 147.115C220.459 146.97 220.363 146.847 220.232 146.773C220.101 146.699 219.945 146.68 219.8 146.719C219.321 146.852 218.875 147.082 218.491 147.396C218.106 147.71 217.791 148.101 217.565 148.543C217.34 148.986 217.209 149.47 217.181 149.966C217.153 150.462 217.228 150.958 217.402 151.423C217.445 151.567 217.542 151.69 217.672 151.765C217.802 151.84 217.957 151.862 218.103 151.826C218.248 151.786 218.371 151.689 218.445 151.558C218.519 151.427 218.538 151.272 218.499 151.126Z" fill="#A24E3F"/>
<path d="M212.014 145.562L226.148 133.194L228.37 136.041L211.664 151.263C211.31 150.867 211.038 150.405 210.864 149.903C210.69 149.401 210.617 148.87 210.65 148.34C210.682 147.81 210.82 147.291 211.054 146.814C211.288 146.338 211.614 145.912 212.014 145.562Z" fill="#263238"/>
<path d="M240.935 127.707C247.598 121.871 251.345 115.252 249.304 112.921C247.263 110.59 240.207 113.431 233.544 119.267C226.881 125.102 223.134 131.721 225.175 134.052C227.216 136.383 234.272 133.542 240.935 127.707Z" fill="#263238"/>
<path d="M236.103 121.83C229.444 127.668 225.691 134.282 227.731 136.611C229.771 138.941 236.827 136.102 243.494 130.264C250.162 124.426 253.899 117.819 251.866 115.483C249.834 113.146 242.763 116 236.103 121.83Z" fill="#263238"/>
<path d="M225.113 133.978L227.739 136.611L251.859 115.49L249.012 112.704L225.113 133.978Z" fill="#263238"/>
<path d="M227.404 133.582C226.953 133.624 226.503 133.491 226.148 133.209C225.684 132.677 225.836 131.055 227.213 128.643C229.143 125.486 231.566 122.659 234.391 120.27C239.787 115.544 244.651 113.42 247.079 113.42C247.531 113.379 247.981 113.516 248.335 113.801C248.791 114.326 248.639 115.955 247.262 118.367C245.335 121.526 242.911 124.353 240.084 126.74C234.688 131.466 229.824 133.59 227.404 133.59V133.582Z" fill="#407BFF"/>
<path opacity="0.3" d="M227.404 133.582C226.953 133.624 226.503 133.491 226.148 133.209C225.684 132.677 225.836 131.055 227.213 128.643C229.143 125.486 231.566 122.659 234.391 120.27C239.787 115.544 244.651 113.42 247.079 113.42C247.531 113.379 247.981 113.516 248.335 113.801C248.791 114.326 248.639 115.955 247.262 118.367C245.335 121.526 242.911 124.353 240.084 126.74C234.688 131.466 229.824 133.59 227.404 133.59V133.582Z" fill="white"/>
<path d="M221.398 135.021C223.2 136.968 224.617 139.238 225.577 141.711C225.825 142.253 225.944 142.844 225.927 143.439C225.914 143.736 225.814 144.022 225.639 144.263C225.465 144.504 225.223 144.688 224.945 144.794C224.598 144.837 224.245 144.798 223.915 144.679C223.586 144.56 223.289 144.365 223.05 144.109C221.579 142.893 220.279 141.485 219.184 139.922C219.184 139.922 217.007 143.218 208.787 141.445" fill="#B97964"/>
<path d="M220.995 135.424C222.791 137.395 224.603 139.938 225.265 142.564C225.432 143.233 225.364 144.482 224.344 144.23C223.655 143.931 223.041 143.481 222.548 142.914C221.482 141.921 220.521 140.821 219.678 139.633C219.625 139.55 219.552 139.481 219.466 139.434C219.379 139.386 219.282 139.361 219.184 139.361C219.085 139.361 218.988 139.386 218.901 139.434C218.815 139.481 218.742 139.55 218.689 139.633C218.628 139.732 218.788 139.527 218.689 139.633C218.585 139.745 218.476 139.852 218.362 139.953C217.919 140.316 217.417 140.599 216.877 140.79C214.373 141.734 211.511 141.391 208.962 140.851C208.246 140.699 207.942 141.802 208.657 141.955C211.443 142.541 214.579 142.906 217.304 141.848C218.248 141.538 219.081 140.958 219.701 140.181H218.712C219.77 141.665 224.55 147.983 226.323 144.238C227.084 142.716 225.912 140.737 225.212 139.382C224.307 137.642 223.176 136.03 221.848 134.587C221.353 134.039 220.546 134.853 221.041 135.394L220.995 135.424Z" fill="#A24E3F"/>
<path d="M164.23 163.129C164.078 162.535 154.259 100.915 160.645 95.8074C167.031 90.7003 173.935 104.576 176.035 119.661C178.136 134.747 179.453 140.973 179.453 140.973C179.681 141.475 207.371 134.511 208.589 138.294C209.806 142.076 212.394 157.322 209.791 157.565C207.188 157.809 165.402 167.688 164.23 163.129Z" fill="#407BFF"/>
<path d="M9.60718 240.924L10.8783 251.466L35.2267 253.467L33.9632 242.941L9.60718 240.924Z" fill="#263238"/>
<path d="M16.0539 252.942L15.6886 248.992C15.6435 248.552 15.5005 248.127 15.27 247.749C15.0395 247.371 14.7275 247.049 14.3566 246.807C11.1675 244.699 12.1341 242.926 14.7067 240.285C14.7067 238.694 12.9714 238.374 12.4918 238.268L1.93501 235.946C1.727 235.888 1.50892 235.874 1.29525 235.906C1.08158 235.939 0.877236 236.016 0.695796 236.133C0.514355 236.251 0.359979 236.405 0.242936 236.587C0.125892 236.769 0.0488621 236.973 0.016969 237.187C-0.00565633 237.351 -0.00565633 237.517 0.016969 237.682C0.458423 242.484 0.671538 244.752 1.21955 250.727L2.90164 268.994C3.35832 273.972 8.22953 274.726 8.51115 272.648C9.61478 263.309 11.6089 256.626 13.9152 253.62C14.3262 253.072 14.7143 253.597 16.0539 252.942Z" fill="#263238"/>
<path d="M13.938 255.735C13.7644 254.991 13.4406 254.289 12.9865 253.674C12.5323 253.059 11.9574 252.543 11.2969 252.158C11.2323 252.115 11.1595 252.085 11.0829 252.07C11.0064 252.056 10.9277 252.058 10.8517 252.075C10.7758 252.092 10.7041 252.124 10.6412 252.17C10.5783 252.216 10.5255 252.275 10.4859 252.342C10.4464 252.409 10.421 252.483 10.4113 252.561C10.4017 252.638 10.4079 252.716 10.4297 252.791C10.4515 252.866 10.4883 252.935 10.538 252.995C10.5876 253.055 10.649 253.105 10.7184 253.14C10.861 253.22 10.9983 253.309 11.1294 253.406L11.2436 253.49L11.4339 253.65C11.548 253.757 11.6698 253.878 11.7764 254C11.8336 254.057 11.887 254.118 11.9362 254.183C11.9362 254.183 12.0504 254.32 11.9743 254.221L12.0428 254.32C12.2406 254.585 12.409 254.871 12.5451 255.172C12.566 255.209 12.5838 255.247 12.5984 255.286L12.6897 255.515C12.7455 255.682 12.7912 255.85 12.8267 256.017C12.8693 256.161 12.9661 256.283 13.0968 256.357C13.2275 256.43 13.3817 256.451 13.527 256.413C13.6712 256.37 13.7936 256.274 13.8687 256.143C13.9437 256.013 13.9658 255.859 13.9304 255.713L13.938 255.735Z" fill="#407BFF"/>
<path d="M12.3929 258.262C12.2185 257.518 11.8943 256.817 11.4403 256.202C10.9862 255.587 10.4117 255.071 9.75176 254.685C9.62242 254.617 9.47199 254.6 9.33077 254.638C9.18954 254.676 9.06801 254.767 8.99063 254.891C8.92582 255.021 8.91093 255.17 8.94881 255.31C8.98668 255.451 9.07468 255.572 9.19614 255.652C9.34021 255.726 9.4777 255.813 9.60715 255.911L9.72893 255.994C9.68326 255.994 9.68326 255.994 9.72893 255.994L9.91921 256.154L10.2693 256.504L10.4292 256.687V256.725L10.5053 256.824C10.696 257.094 10.8641 257.379 11.0076 257.676L11.0533 257.791L11.137 258.019C11.1878 258.186 11.2334 258.354 11.274 258.521C11.3144 258.668 11.4112 258.792 11.5433 258.867C11.6753 258.942 11.8317 258.961 11.9781 258.921C12.1244 258.88 12.2487 258.784 12.3237 258.652C12.3986 258.52 12.418 258.363 12.3777 258.217L12.3929 258.262Z" fill="#407BFF"/>
<path d="M11.1903 261.406C11.0155 260.662 10.6912 259.961 10.2372 259.346C9.78315 258.731 9.20886 258.215 8.54919 257.829C8.48461 257.785 8.4118 257.755 8.33525 257.741C8.2587 257.726 8.18002 257.728 8.10406 257.745C8.02809 257.762 7.95645 257.795 7.89354 257.841C7.83063 257.887 7.77779 257.945 7.73825 258.012C7.69872 258.079 7.67333 258.154 7.66366 258.231C7.65399 258.308 7.66023 258.387 7.68201 258.462C7.70379 258.536 7.74064 258.606 7.79029 258.666C7.83994 258.726 7.90135 258.775 7.97073 258.81C8.10773 258.894 8.24474 258.978 8.38174 259.077L8.49591 259.161L8.67858 259.32C8.80036 259.427 8.92214 259.549 9.0287 259.663L9.18853 259.853L9.25704 259.952C9.45486 260.217 9.6233 260.503 9.75938 260.805L9.81266 260.911C9.81266 260.911 9.87355 261.071 9.89638 261.147C9.95604 261.311 10.0044 261.479 10.041 261.649C10.0836 261.793 10.1804 261.915 10.3111 261.989C10.4417 262.063 10.596 262.083 10.7412 262.045C10.8855 262.003 11.0078 261.906 11.0829 261.776C11.158 261.645 11.1801 261.491 11.1446 261.345L11.1903 261.406Z" fill="#407BFF"/>
<path d="M161.97 270.037L172.595 270.06L177.535 246.13L166.932 246.1L161.97 270.037Z" fill="#263238"/>
<path d="M174.741 264.686L170.776 264.572C170.334 264.562 169.895 264.651 169.492 264.833C169.089 265.015 168.732 265.285 168.447 265.623C165.966 268.53 164.322 267.358 162.008 264.481C160.44 264.26 159.899 266.003 159.724 266.437L156.101 276.628C156.022 276.829 155.987 277.044 155.997 277.26C156.007 277.475 156.063 277.686 156.161 277.878C156.259 278.07 156.397 278.239 156.565 278.374C156.733 278.509 156.928 278.607 157.136 278.661C157.294 278.712 157.458 278.738 157.624 278.737L170.715 279.133L189.051 279.681C194.051 279.825 195.391 275.061 193.359 274.551C184.225 272.328 177.839 269.535 175.137 266.886C174.658 266.391 175.228 266.094 174.741 264.686Z" fill="#263238"/>
<path d="M177.306 267.152C176.518 267.234 175.756 267.48 175.068 267.873C174.38 268.266 173.781 268.798 173.31 269.436C173.244 269.565 173.228 269.715 173.266 269.856C173.304 269.997 173.393 270.118 173.516 270.197C173.646 270.26 173.795 270.274 173.935 270.236C174.075 270.199 174.196 270.112 174.277 269.991C174.338 269.908 174.277 269.991 174.277 269.953L174.346 269.87L174.505 269.695C174.614 269.575 174.731 269.463 174.856 269.36L174.939 269.284L175.008 269.23L175.061 269.192L175.168 269.109L175.586 268.85C175.719 268.774 175.856 268.705 175.997 268.644L176.104 268.599L176.332 268.522C176.489 268.469 176.649 268.425 176.812 268.393L177.048 268.34H177.154H177.223C177.374 268.34 177.519 268.28 177.626 268.173C177.733 268.066 177.793 267.92 177.793 267.769C177.793 267.618 177.733 267.472 177.626 267.365C177.519 267.258 177.374 267.198 177.223 267.198L177.306 267.152Z" fill="#407BFF"/>
<path d="M179.643 268.956C178.855 269.038 178.092 269.284 177.404 269.677C176.716 270.07 176.118 270.602 175.647 271.24C175.581 271.369 175.565 271.519 175.603 271.66C175.641 271.801 175.73 271.922 175.853 272.001C175.983 272.064 176.132 272.078 176.272 272.04C176.411 272.002 176.533 271.915 176.614 271.795L176.682 271.712L176.842 271.537C176.951 271.417 177.068 271.305 177.192 271.202L177.276 271.126L177.344 271.072H177.398L177.504 270.996C177.639 270.9 177.779 270.811 177.923 270.73L178.334 270.524L178.44 270.479L178.669 270.402C178.826 270.349 178.986 270.306 179.148 270.273L179.384 270.22H179.498H179.643C179.794 270.22 179.94 270.16 180.047 270.053C180.154 269.946 180.214 269.8 180.214 269.649C180.214 269.498 180.154 269.352 180.047 269.245C179.94 269.138 179.794 269.078 179.643 269.078V268.956Z" fill="#407BFF"/>
<path d="M182.634 270.539C181.849 270.616 181.088 270.854 180.4 271.241C179.712 271.628 179.112 272.153 178.638 272.785C178.595 272.849 178.565 272.922 178.551 272.999C178.536 273.075 178.538 273.154 178.555 273.23C178.572 273.306 178.605 273.378 178.651 273.44C178.696 273.503 178.755 273.556 178.822 273.596C178.889 273.635 178.963 273.661 179.041 273.67C179.118 273.68 179.196 273.674 179.271 273.652C179.346 273.63 179.416 273.593 179.476 273.544C179.536 273.494 179.585 273.433 179.62 273.363L179.689 273.28L179.848 273.097C179.955 272.983 180.077 272.869 180.199 272.762L180.282 272.693L180.351 272.633C180.305 272.633 180.389 272.633 180.396 272.595L180.511 272.518C180.643 272.425 180.78 272.339 180.922 272.26L181.34 272.047L181.439 272.008L181.675 271.925C181.83 271.874 181.988 271.83 182.147 271.795L182.391 271.75H182.497H182.566C182.715 271.744 182.857 271.682 182.963 271.576C183.069 271.47 183.131 271.328 183.137 271.179C183.137 270.897 182.878 270.57 182.566 270.608L182.634 270.539Z" fill="#407BFF"/>
<path d="M167.891 96.8121C167.891 96.8121 172.983 116.457 171.697 126.892C170.563 136.025 160.28 197.76 158.141 220.511C156.002 243.261 155.858 245.521 152.95 245.673C150.043 245.826 123.525 247.043 122.909 245.673C122.292 244.303 122.147 232.407 122.147 232.407C122.147 232.407 121.843 247.348 116.203 245.673C110.563 243.999 88.9091 240.795 88.1479 240.642C87.3868 240.49 98.0426 124.441 98.0426 124.441L145.43 84.2535C154.61 88.5615 165.768 93.075 167.891 96.8121Z" fill="#407BFF"/>
<path d="M203.664 72.3038C203.664 72.3038 190.299 74.747 186.493 73.9403C182.216 73.0421 160.204 66.466 157.723 64.2359C155.241 62.0058 151.633 56.5104 151.633 56.5104L164.573 57.1498C164.573 57.1498 192.057 66.9988 192.202 67.0444C192.346 67.0901 203.664 72.3038 203.664 72.3038Z" fill="#407BFF"/>
<path opacity="0.4" d="M203.664 72.3038C203.664 72.3038 190.299 74.747 186.493 73.9403C182.216 73.0421 160.204 66.466 157.723 64.2359C155.241 62.0058 151.633 56.5104 151.633 56.5104H163.294L194.713 64.7763L203.664 72.3038Z" fill="black"/>
<path d="M162.609 99.8566C162.609 99.8566 162.556 96.1652 163.85 93.585C164.53 92.1071 165.579 90.8283 166.894 89.8707C167.602 89.3094 168.35 88.8007 169.132 88.3484L163.865 67.8969C160.592 74.3893 154.884 86.5674 147.562 87.3133C147.562 87.3133 151.877 96.3326 155.736 99.6359C159.595 102.939 162.609 99.8566 162.609 99.8566Z" fill="#B97964"/>
<path opacity="0.2" d="M162.053 75.5615C156.49 81.9322 161.11 90.0762 163.85 93.6002C164.53 92.1218 165.578 90.8428 166.894 89.8859L162.053 75.5615Z" fill="black"/>
<path d="M191.821 60.8108C198.945 65.2787 191.243 67.0978 196.959 74.2295C193.313 78.37 184.491 78.5223 185.108 74.435C185.793 69.9368 185.96 57.0357 191.821 60.8108Z" fill="#263238"/>
<path d="M165.182 61.1914C161.155 70.4771 158.697 75.6528 161.033 82.6247C164.542 93.1359 177.74 94.8789 184.545 87.0088C190.672 79.9303 196.228 65.9256 188.959 57.7511C181.805 49.6984 169.216 51.898 165.182 61.1914Z" fill="#B97964"/>
<path d="M176.309 69.4801C175.845 70.4011 175.967 71.4058 176.583 71.7178C177.2 72.0299 178.106 71.5352 178.562 70.6142C179.019 69.6932 178.912 68.6962 178.288 68.3841C177.664 68.072 176.781 68.5592 176.309 69.4801Z" fill="#263238"/>
<path d="M185.184 74.8841C184.712 75.805 184.834 76.8097 185.458 77.1218C186.082 77.4338 186.98 76.9391 187.429 76.0181C187.878 75.0972 187.779 74.1001 187.155 73.788C186.531 73.476 185.648 73.9631 185.184 74.8841Z" fill="#263238"/>
<path d="M183.494 73.514C183.494 73.514 184.149 79.6031 184.156 81.993C182.254 82.4649 180.26 80.7676 180.26 80.7676L183.494 73.514Z" fill="#962B19"/>
<path d="M177.656 63.6499C177.658 63.7375 177.683 63.8231 177.728 63.898C177.774 63.9728 177.838 64.0343 177.915 64.0761C178.464 64.367 178.94 64.7794 179.305 65.282C179.67 65.7846 179.916 66.364 180.024 66.976C180.035 67.1066 180.097 67.2274 180.197 67.3128C180.297 67.3981 180.425 67.4411 180.556 67.4327C180.62 67.428 180.682 67.4105 180.738 67.3812C180.795 67.352 180.845 67.3117 180.885 67.2626C180.926 67.2135 180.956 67.1568 180.974 67.0958C180.992 67.0347 180.998 66.9707 180.99 66.9075C180.872 66.1266 180.573 65.3841 180.117 64.7393C179.661 64.0944 179.061 63.5649 178.364 63.1932C178.309 63.1602 178.248 63.1389 178.185 63.1306C178.121 63.1224 178.057 63.1274 177.995 63.1452C177.934 63.1631 177.877 63.1935 177.828 63.2345C177.778 63.2755 177.738 63.3262 177.71 63.3835C177.665 63.4648 177.647 63.5577 177.656 63.6499Z" fill="#263238"/>
<path d="M192.909 73.2324C193.006 73.2219 193.098 73.185 193.176 73.1258C193.226 73.0859 193.268 73.0364 193.299 72.98C193.329 72.9237 193.349 72.8617 193.355 72.7978C193.361 72.7339 193.355 72.6694 193.336 72.6081C193.317 72.5468 193.286 72.4899 193.244 72.4408C192.755 71.8292 192.128 71.3407 191.416 71.0142C190.704 70.6878 189.925 70.5325 189.142 70.5608C189.078 70.5666 189.015 70.5849 188.959 70.6149C188.902 70.6448 188.851 70.6857 188.81 70.7352C188.769 70.7848 188.738 70.8419 188.719 70.9035C188.701 70.965 188.694 71.0296 188.7 71.0936C188.716 71.2223 188.781 71.3398 188.882 71.421C188.983 71.5021 189.112 71.5403 189.241 71.5275C189.862 71.5065 190.479 71.6337 191.042 71.8983C191.604 72.163 192.096 72.5577 192.476 73.0497C192.527 73.1144 192.593 73.165 192.669 73.1969C192.745 73.2289 192.828 73.2411 192.909 73.2324Z" fill="#263238"/>
<path d="M194.972 67.9578C187.856 67.4935 182.573 58.2535 182.573 58.2535C179.658 61.1001 173.204 59.5778 173.204 59.5778C172.607 61.3852 171.773 63.1052 170.723 64.6926C169.213 66.5575 167.451 68.2023 165.486 69.579C165.098 69.0662 164.642 68.608 164.131 68.2166L161.148 75.0668C159.427 75.3774 157.656 75.2517 155.997 74.7012C154.337 74.1508 152.842 73.1931 151.649 71.9157C153.345 71.8669 155.001 71.3932 156.467 70.5381C153.889 69.5635 151.722 67.7374 150.324 65.3624C151.953 65.9865 153.711 66.6183 155.401 66.192C156.314 65.9637 157.068 64.997 157.593 63.7412C163.545 47.7575 172.138 48.5186 172.138 48.5186C172.138 48.5186 183.449 43.9519 189.492 49.5309C195.535 55.11 193.024 55.3231 194.196 61.0011C195.368 66.6791 194.972 67.9578 194.972 67.9578Z" fill="#263238"/>
<path d="M157.715 66.8085C157.527 68.0689 157.591 69.3538 157.902 70.5895C158.213 71.8252 158.765 72.9872 159.526 74.0088C161.597 76.7641 164.093 74.3589 165.311 71.3905C166.376 68.719 167.199 65.2178 164.268 63.5052C161.338 61.7927 158.225 63.7184 157.715 66.8085Z" fill="#B97964"/>
<path opacity="0.2" d="M161.094 65.4081C161.434 65.255 161.812 65.2051 162.18 65.2646C162.548 65.3241 162.89 65.4905 163.165 65.743C163.712 66.2557 164.067 66.9409 164.169 67.6839C164.321 68.5547 164.24 69.4501 163.933 70.2793" stroke="black" stroke-width="0.75" stroke-linecap="round" stroke-linejoin="round"/>
<path d="M173.074 80.5545C173.17 80.5727 173.264 80.5982 173.356 80.6306L173.493 80.6763H173.562C173.493 80.6763 173.638 80.6763 173.645 80.7219L173.759 80.7752L174.011 80.9198L174.132 81.0036C174.132 81.0036 174.269 81.1025 174.17 81.0036C174.242 81.0556 174.311 81.1115 174.376 81.171C174.515 81.2985 174.645 81.4359 174.764 81.582C174.718 81.5135 174.84 81.6733 174.764 81.582L174.84 81.6886C174.892 81.7609 174.938 81.8372 174.977 81.9169C175.03 81.999 175.076 82.0856 175.114 82.1757C175.139 82.2166 175.159 82.2599 175.175 82.3051C175.175 82.2137 175.175 82.3051 175.175 82.3507C175.239 82.5187 175.287 82.6919 175.32 82.8683C175.323 82.9165 175.323 82.9648 175.32 83.0129C175.32 83.0129 175.32 83.2108 175.32 83.3098C175.322 83.4606 175.383 83.6046 175.489 83.7112C175.596 83.8179 175.74 83.8786 175.891 83.8806C176.041 83.8768 176.184 83.8154 176.29 83.7092C176.396 83.6029 176.458 83.46 176.461 83.3098C176.442 82.388 176.12 81.4982 175.545 80.7774C174.97 80.0567 174.174 79.5451 173.28 79.3215C173.135 79.2837 172.98 79.3039 172.85 79.3777C172.719 79.4516 172.622 79.5733 172.58 79.7172C172.542 79.8645 172.563 80.0207 172.638 80.1527C172.714 80.2848 172.837 80.3825 172.983 80.4251L173.074 80.5545Z" fill="#263238"/>
<path opacity="0.4" d="M195.452 71.9994C195.452 71.9994 184.392 66.6106 177.573 64.8981C170.753 63.1856 158.72 60.9402 158.72 60.9402L160.105 58.4285C160.105 58.4285 188.784 62.9344 188.891 62.9953L194.325 67.1358L195.452 71.9994Z" fill="black"/>
<path d="M195.566 59.8746C195.566 59.8746 196.175 44.1574 190.367 42.4372C184.56 40.7171 183.03 45.8623 179.887 42.5818C176.743 39.3014 175.799 38.1521 173.866 39.0807C171.933 40.0092 168.31 43.9138 165.182 50.9086L195.566 59.8746Z" fill="#407BFF"/>
<path d="M203.634 72.517L195.566 59.8746L165.182 50.9086C165.182 50.9086 151.321 56.3202 151.687 56.6855C152.052 57.0509 164.565 58.6873 179.536 63.5966C194.508 68.5058 203.634 72.517 203.634 72.517Z" fill="#407BFF"/>
<path opacity="0.4" d="M195.558 56.8986C195.558 56.8986 173.805 48.4806 166.506 48.1685L165.182 50.9086L195.566 59.8747C195.627 59.0146 195.627 57.9947 195.558 56.8986Z" fill="black"/>
<g opacity="0.2">
<path d="M184.651 43.0309C183.554 43.6352 182.333 43.9796 181.082 44.0377C179.831 44.0957 178.584 43.8659 177.436 43.3658C177.101 43.2212 176.812 43.7159 177.146 43.8605C178.389 44.4104 179.741 44.6662 181.098 44.6081C182.455 44.55 183.78 44.1796 184.971 43.5256C185.026 43.4825 185.063 43.4209 185.076 43.3522C185.089 43.2836 185.077 43.2125 185.042 43.1522C185.007 43.0918 184.951 43.0463 184.884 43.024C184.818 43.0017 184.746 43.0042 184.682 43.0309H184.651Z" fill="black"/>
</g>
<g opacity="0.2">
<path d="M192.925 49.5537C192.604 50.4131 192.461 51.329 192.507 52.2452C192.553 53.1614 192.786 54.0586 193.191 54.8816C193.359 55.2089 193.846 54.9197 193.686 54.5924C193.317 53.8333 193.108 53.0067 193.071 52.1637C193.035 51.3206 193.171 50.4789 193.473 49.6907C193.602 49.3482 193.054 49.2036 192.925 49.5385V49.5537Z" fill="black"/>
</g>
<path opacity="0.4" d="M121.402 152.169L162.837 117.423C162.837 117.423 161.17 142.906 158.476 156.02C155.782 169.134 148.437 245.742 148.437 245.742L148.224 245.856C139.745 246.206 123.388 246.716 122.909 245.643C122.3 244.273 122.147 232.377 122.147 232.377C122.147 232.377 121.843 247.317 116.203 245.643C113.714 244.882 108.127 243.87 102.586 242.933L121.402 152.169Z" fill="black"/>
<path d="M130.04 157.185C130.801 157.071 174.414 168.312 192.323 177.149C197.088 179.501 200.376 185.986 200.163 191.839C199.904 198.765 182.718 262.89 182.718 262.89C179.628 263.172 157.22 257.844 157.22 257.844C157.22 257.844 170.449 204.009 169.048 199.503C167.648 194.998 104.702 186.092 102.457 180.757C100.212 175.421 93.4225 141.003 93.4225 141.003L133.26 150.258L130.04 157.185Z" fill="#263238"/>
<path d="M121.402 157.223C121.402 157.223 108.66 254.213 101.178 262.076C94.1608 269.428 21.4275 260.515 21.4275 260.515L24.5862 237.956C24.5862 237.956 78.9611 244.653 80.3692 239.6C81.7773 234.546 74.95 172.704 77.1953 163.966C79.4406 155.229 93.4225 141.003 93.4225 141.003L121.402 157.223Z" fill="#263238"/>
<path d="M163.294 94.6201C163.446 95.0768 173.189 104.34 167.008 113.991C165.44 116.449 136.913 152.047 132.712 154.057C128.51 156.066 99.6713 146.666 97.015 143.165C94.3586 139.664 143.215 82.6704 143.215 82.6704L151.588 85.7682L155.241 97.5733L163.294 94.6201Z" fill="#E0E0E0"/>
<path d="M155.424 100.359L155.865 105.938L153.27 107.582H150.066L148.696 102.49L153.064 99.3543L155.424 100.359Z" fill="#407BFF"/>
<path opacity="0.4" d="M140.064 159.674C140.064 159.674 140.521 167.513 141.998 169.233C143.474 170.954 149.084 174.051 149.084 174.051L148.688 162.056L140.064 159.674Z" fill="black"/>
<path d="M153.27 104.081C153.27 104.751 155.553 158.075 155.553 161.051C155.614 165.024 149.16 173.846 149.16 173.846C149.16 173.846 143.961 167.94 143.832 160.382C143.703 152.824 150.682 104.058 150.682 104.058L153.27 104.081Z" fill="#407BFF"/>
<g opacity="0.3">
<path d="M142.104 89.924L147.759 103.168L155.18 97.8397L155.941 106.159C158.584 104.755 161.116 103.152 163.515 101.364C163.515 101.364 155.713 108.328 155.355 107.59C154.998 106.851 154.594 99.301 154.594 99.301C154.594 99.301 146.892 105.185 146.587 104.431C146.283 103.678 142.104 89.924 142.104 89.924Z" fill="#263238"/>
</g>
<path opacity="0.3" d="M77.7204 159.072C77.6595 158.821 85.3926 150.289 85.5144 149.794C85.6362 149.299 114.392 130.5 114.392 130.5C114.392 130.5 90.2182 158.205 88.1022 163.525C85.9863 168.845 86.3821 173.785 86.58 181.031C86.7779 188.277 89.2439 235.071 87.8206 241.883C86.3973 248.695 78.3446 246.602 78.3446 246.602C78.3446 246.602 67.2702 214.566 66.9962 214.505C66.7222 214.444 77.7813 159.339 77.7204 159.072Z" fill="black"/>
<path d="M149.845 85.1212C149.845 85.1212 136.259 76.8706 128.594 72.4865C124.789 70.2945 67.6279 142.031 63.7385 149.36C57.0558 161.889 50.845 237.126 50.845 237.126C50.845 237.126 76.2058 251.587 83.9997 245.864C91.7937 240.14 77.4008 169.18 84.2966 161.059C91.1924 152.938 107.077 139.892 116.667 128.734C126.258 117.576 149.845 85.1212 149.845 85.1212Z" fill="#407BFF"/>
<path d="M71.2433 79.9151C71.776 79.6183 123.959 67.1205 129.469 73.1563C134.98 79.192 124.537 92.7477 109.619 95.7313C108.348 95.9901 83.2234 97.7483 82.7972 98.106C81.3206 99.3543 62.5969 127.128 58.8978 128.551C55.1987 129.974 43.2109 121.328 43.6752 118.786C44.1395 116.244 66.3568 82.6247 71.2433 79.9151Z" fill="#407BFF"/>
<path opacity="0.4" d="M117.299 186.169L119.438 173.389L124.164 168.244L121.089 174.774L120.374 187.013L117.299 186.169Z" fill="black"/>
<g opacity="0.3">
<path d="M128.259 74.2295C128.081 79.2776 125.994 84.0701 122.421 87.6406C118.793 91.1528 114.04 93.2691 109.003 93.6154C108.242 93.6687 108.242 94.8104 109.003 94.7571C114.345 94.3936 119.386 92.147 123.228 88.4169C127.008 84.6396 129.217 79.5701 129.409 74.2295C129.409 73.4684 128.29 73.4684 128.267 74.2295H128.259Z" fill="black"/>
</g>
<g opacity="0.3">
<path d="M65.1999 120.849C63.5907 119.212 61.8325 117.729 59.9481 116.419C58.0995 115.023 56.1066 113.828 54.0037 112.857C53.8734 112.794 53.7246 112.78 53.5848 112.817C53.4449 112.855 53.3234 112.942 53.2426 113.062L50.3731 117.439C50.3048 117.568 50.288 117.718 50.3262 117.86C50.3643 118.001 50.4545 118.122 50.5786 118.2C54.1446 120.834 57.555 123.673 60.793 126.702C61.3258 127.219 62.1326 126.412 61.6074 125.895C58.2856 122.802 54.7888 119.902 51.1343 117.21L51.3322 117.971L54.2092 113.603L53.4481 113.808C55.4864 114.747 57.4201 115.897 59.2174 117.241C61.0852 118.531 62.8259 119.997 64.4159 121.617C64.9259 122.15 65.7327 121.343 65.2227 120.81L65.1999 120.849Z" fill="black"/>
</g>
<path d="M53.2959 117.051C53.2567 117.191 53.2469 117.338 53.2674 117.483C53.2878 117.628 53.338 117.766 53.4147 117.891C53.4914 118.015 53.593 118.122 53.7131 118.205C53.8332 118.288 53.9692 118.346 54.1126 118.373C54.2559 118.401 54.4035 118.399 54.546 118.367C54.6885 118.336 54.8229 118.274 54.9407 118.188C55.0584 118.102 55.157 117.992 55.2303 117.866C55.3035 117.739 55.3498 117.599 55.3662 117.454C55.3961 117.19 55.3253 116.924 55.168 116.709C55.0107 116.495 54.7783 116.347 54.5173 116.297C54.2562 116.246 53.9855 116.295 53.7592 116.435C53.5328 116.574 53.3674 116.794 53.2959 117.051Z" fill="#263238"/>
<g opacity="0.3">
<path d="M118.913 126.047C119.674 122.85 118.692 117.408 119.301 114.173C119.91 110.939 120.914 107.689 122.977 105.04C124.032 103.636 125.386 102.485 126.94 101.668C128.495 100.852 130.212 100.392 131.966 100.321C131.41 98.1584 131.075 95.9447 130.969 93.7143C130.874 91.4727 131.472 89.2562 132.681 87.3665C134.965 84.0176 138.892 82.0387 143.109 81.072L149.845 85.1364L118.913 126.047Z" fill="black"/>
</g>
<path d="M167.891 96.8122C171.514 102.536 169.726 110.665 165.608 116.061C168.744 120.628 169.276 126.587 168.043 131.969C166.81 137.35 163.637 140.98 160.47 145.509C160.47 145.509 163.142 114.204 163.233 112.704C163.324 111.205 163.233 94.2395 163.271 94.6201C163.309 95.0007 164.725 93.4632 164.725 93.4632C165.911 94.4483 166.974 95.5727 167.891 96.8122Z" fill="#407BFF"/>
<g opacity="0.3">
<path d="M167.891 96.8122C171.514 102.536 169.725 110.665 165.608 116.061C168.744 120.628 169.276 126.587 168.043 131.969C166.81 137.35 163.309 140.98 160.135 145.509C160.135 145.509 160.835 139.96 161.46 133.377C162.32 124.411 163.18 113.587 163.233 112.704C163.317 111.182 163.233 94.2395 163.271 94.6201C163.309 95.0007 164.725 93.4632 164.725 93.4632C165.911 94.4483 166.974 95.5727 167.891 96.8122Z" fill="black"/>
</g>
<g opacity="0.3">
<path d="M166.148 165.291C167.838 153.28 170.312 141.391 172.07 129.381C172.542 126.146 172.96 122.911 173.295 119.661C173.364 118.9 172.222 118.9 172.153 119.661C170.936 131.626 168.553 143.431 166.559 155.282C166.019 158.509 165.501 161.744 165.037 164.986C164.938 165.709 166.042 166.021 166.141 165.291H166.148Z" fill="black"/>
</g>
<g opacity="0.3">
<path d="M88.3914 147.952C83.45 149.98 77.9368 150.126 72.8949 148.363C72.2023 148.12 71.8978 149.223 72.5904 149.459C77.8296 151.286 83.5547 151.143 88.6959 149.056C89.3657 148.774 89.0688 147.671 88.3914 147.952Z" fill="black"/>
</g>
<path d="M29.7694 136.239C31.9296 134.023 34.5554 132.314 37.4568 131.238C38.1418 130.979 37.845 129.876 37.1524 130.134C34.0505 131.28 31.2445 133.106 28.9398 135.477C28.4222 136.003 29.229 136.809 29.7466 136.284L29.7694 136.239Z" fill="#A24E3F"/>
<g opacity="0.3">
<path d="M177.596 193.749L168.028 197.22C167.343 197.471 167.64 198.575 168.333 198.324L177.9 194.845C178.585 194.602 178.288 193.498 177.596 193.749Z" fill="black"/>
</g>
<g opacity="0.3">
<path d="M176.385 200.318C174.255 199.551 172.066 198.96 169.84 198.552C169.693 198.517 169.539 198.539 169.409 198.614C169.279 198.689 169.182 198.811 169.139 198.955C169.1 199.101 169.119 199.256 169.193 199.387C169.267 199.518 169.39 199.615 169.535 199.656C171.761 200.065 173.95 200.653 176.081 201.414C176.221 201.44 176.367 201.413 176.488 201.337C176.609 201.262 176.698 201.143 176.736 201.006C176.774 200.868 176.76 200.721 176.695 200.593C176.63 200.466 176.519 200.368 176.385 200.318Z" fill="black"/>
</g>
<g opacity="0.3">
<path d="M178.699 140.973C176.949 145.432 174.916 149.774 172.61 153.973C172.252 154.62 173.242 155.198 173.592 154.551C175.939 150.264 178.009 145.83 179.788 141.277C180.054 140.592 178.95 140.295 178.684 140.973H178.699Z" fill="black"/>
</g>
<g opacity="0.3">
<path d="M174.17 123.505L171.484 126.618C171.38 126.727 171.323 126.871 171.323 127.021C171.323 127.171 171.38 127.316 171.484 127.425C171.591 127.532 171.736 127.592 171.887 127.592C172.038 127.592 172.183 127.532 172.29 127.425L174.977 124.312C175.081 124.203 175.138 124.058 175.138 123.908C175.138 123.758 175.081 123.614 174.977 123.505C174.87 123.398 174.725 123.338 174.574 123.338C174.423 123.338 174.277 123.398 174.17 123.505Z" fill="black"/>
</g>
<path opacity="0.3" d="M242.055 114.927C242.055 114.927 241.18 119.227 238.463 122.066C235.746 124.905 236.088 129.837 236.088 129.837L233.211 131.603C233.211 131.603 231.202 131.489 233.211 126.443C235.221 121.397 237.428 123.992 238.463 120.194C239.498 116.396 238.904 116.754 238.904 116.754C238.904 116.754 241.294 114.927 242.055 114.927Z" fill="white"/>
<g opacity="0.3">
<path d="M127.62 201.513C126.372 210.169 125.342 218.849 124.53 227.551C124.461 228.312 125.603 228.312 125.671 227.551C126.468 218.925 127.483 210.347 128.716 201.817C128.823 201.056 127.726 200.782 127.62 201.513Z" fill="black"/>
</g>
<g opacity="0.3">
<path d="M136.67 201.216C135.356 215.982 134.036 230.75 132.712 245.521C132.651 246.282 133.793 246.244 133.854 245.521C135.168 230.755 136.487 215.987 137.811 201.216C137.88 200.455 136.738 200.493 136.67 201.216Z" fill="black"/>
</g>
</svg>
